# xmcd CD database file
#
# Track frame offsets:
#	150
#	12956
#	30901
#	45689
#	60424
#	78620
#	90709
#	102727
#	117950
#	130539
#	145413
#	167476
#	186045
#	201528
#
# Disc length: 2882 seconds
#
# Revision: 2
# Processed by: cddbd v1.5.2PL0 Copyright (c) Steve Scherf et al.
# Submitted via: CDex 1.50
#
DISCID=ba0b400e
DTITLE=Various Artist - Mr Music Country 07 2006
DYEAR=2006
DGENRE=Country
TTITLE0=The Derailers - Cold Beer, Hot Women and Cool Country Music
TTITLE1=Roger Creager - The Everclear Song
TTITLE2=Joni Compretta - Old Flames (Can't Hold A Candle To You)
TTITLE3=Doug Adkins - Whiskey Salesman
TTITLE4=Jason Richison - Truck Drivin' Man
TTITLE5=Kim Carson - Hank's Songs
TTITLE6=BR5-49 - A-1 On The Jukebox
TTITLE7=Sonny Throckmorton - The Cowboy Rides Away
TTITLE8=Carly Goodwin - Until Then
TTITLE9=Justin Trevino - Life's Railway To Heaven
TTITLE10=Pilgrim - Stupid Song
TTITLE11=Rio Grande - Baby It's Never Too Late
TTITLE12=Kristin Major - Knock Knock Who's There
TTITLE13=Paul Overstreet with Ricky Shaggs - I Won't Take Less Than Your Love
EXTD=YEAR: 2006
EXTT0=
EXTT1=
EXTT2=
EXTT3=
EXTT4=
EXTT5=
EXTT6=
EXTT7=
EXTT8=
EXTT9=
EXTT10=
EXTT11=
EXTT12=
EXTT13=
PLAYORDER=
